<?xml version="1.0" encoding="iso-8859-1"?>
<!-- Uploaded to: SVG Repo, www.svgrepo.com, Generator: SVG Repo Mixer Tools -->
<svg height="800px" width="800px" version="1.1" id="Layer_1" xmlns="http://www.w3.org/2000/svg" xmlns:xlink="http://www.w3.org/1999/xlink" 
	 viewBox="0 0 496 496" xml:space="preserve">
<path style="fill:#6829C1;" d="M429.6,266c14.4-31.2,16.8-70.4-8.8-96c-24.8-24.8-61.6-31.2-92.8-18.4c0-47.2-36.8-84-83.2-84
	c-47.2,0-84.8,37.6-84.8,84.8l0,0c-8-3.2-14.4-4.8-22.4-4.8c-28,0-40.8,28-40.8,56c0,7.2-8.8,8.8-6.4,14.4c-1.6,0-4-0.8-5.6-0.8
	c-18.4,0-22.4,19.2-22.4,37.6c0,5.6-9.6,5.6-7.2,10.4c-32,12-55.2,44-55.2,80c0,48,22.4,86.4,69.6,94.4h356
	c47.2-8,69.6-46.4,69.6-93.6C496,309.2,463.2,278,429.6,266z"/>
<path style="fill:#9449DB;" d="M438.4,254c14.4-31.2,8-69.6-17.6-95.2C396,134,359.2,127.6,328,140.4c0-46.4-36.8-84-83.2-84
	c-47.2,0-84.8,38.4-84.8,85.6l0,0c-8-3.2-14.4-4.8-22.4-4.8c-28,0-51.2,22.4-51.2,50.4c0,7.2,1.6,13.6,4,20c-1.6,0-4-0.8-5.6-0.8
	c-18.4,0-32.8,14.4-32.8,32.8c0,5.6,1.6,10.4,4,15.2c-32.8,12-56,44.8-56,81.6c0,47.2,38.4,87.2,85.6,87.2h325.6
	c46.4,0,84.8-40,84.8-87.2C496,299.6,472,266,438.4,254z"/>
<circle style="fill:#7D38CE;" cx="362.4" cy="92.4" r="19.2"/>
<path style="fill:#9449DB;" d="M397.6,118.8c4.8,0,8.8-4,8.8-8.8s-4-8.8-8.8-8.8s-8.8,4-8.8,8.8
	C388.8,114.8,392.8,118.8,397.6,118.8z"/>
<path style="fill:#6829C1;" d="M407.2,78c2.4,0,4.8-2.4,4.8-4.8s-2.4-4.8-4.8-4.8s-4.8,2.4-4.8,4.8C402.4,76.4,404,78,407.2,78z"/>
<path style="fill:#7D38CE;" d="M496,336.4c0-37.6-24-69.6-57.6-81.6c14.4-31.2,8-69.6-17.6-96C396,134,359.2,127.6,328,139.6
	c0-45.6-36.8-83.2-83.2-83.2c-47.2,0-84.8,38.4-84.8,85.6l0,0c-8-3.2-14.4-4.8-22.4-4.8c-28,0-51.2,22.4-51.2,50.4
	c0,6.4,0.8,14.4,3.2,20l214.4,216h107.2C457.6,423.6,496,383.6,496,336.4z"/>
<g>
	<path style="fill:#6829C1;" d="M248,394.8c-54.4,0-99.2-44-99.2-99.2c0-12.8,10.4-23.2,23.2-23.2s23.2,10.4,23.2,23.2
		c0,28.8,23.2,52,52,52c12.8,0,23.2,10.4,23.2,23.2S260.8,394.8,248,394.8z"/>
	<path style="fill:#6829C1;" d="M323.2,319.6c-12.8,0-23.2-10.4-23.2-23.2c0-28.8-23.2-52-52-52c-12.8,0-23.2-10.4-23.2-23.2
		c0-12.8,10.4-23.2,23.2-23.2c54.4,0,99.2,44,99.2,99.2C347.2,309.2,336.8,319.6,323.2,319.6z"/>
</g>
<g>
	<path style="fill:#FFFFFF;" d="M248,370c-54.4,0-99.2-44-99.2-99.2c0-12.8,10.4-23.2,23.2-23.2s23.2,10.4,23.2,23.2
		c0,28.8,23.2,52,52,52c12.8,0,23.2,10.4,23.2,23.2S260.8,370,248,370z"/>
	<path style="fill:#FFFFFF;" d="M323.2,294c-12.8,0-23.2-10.4-23.2-23.2c0-28.8-23.2-52-52-52c-12.8,0-23.2-10.4-23.2-23.2
		c0-12.8,10.4-23.2,23.2-23.2c54.4,0,99.2,44,99.2,99.2C347.2,283.6,336.8,294,323.2,294z"/>
</g>
</svg>